<?xml version="1.0" standalone="no"?>
<!DOCTYPE svg PUBLIC "-//W3C//DTD SVG 20010904//EN"
 "http://www.w3.org/TR/2001/REC-SVG-20010904/DTD/svg10.dtd">
<svg version="1.0" xmlns="http://www.w3.org/2000/svg"
 width="250.000000pt" height="250.000000pt" viewBox="0 0 250.000000 250.000000"
 preserveAspectRatio="xMidYMid meet">
<metadata>
Created by potrace 1.14, written by Peter Selinger 2001-2017
</metadata>
<g transform="translate(0.000000,250.000000) scale(0.100000,-0.100000)"
fill="#000000" stroke="none">
<path d="M452 1610 c-34 -9 -64 -15 -66 -13 -2 2 -12 0 -23 -5 -10 -5 -36 -18
-58 -28 -89 -42 -172 -161 -178 -253 -1 -22 -6 -41 -11 -41 -5 0 -4 -6 1 -12
5 -7 10 -26 11 -43 4 -42 58 -151 87 -173 13 -11 22 -21 20 -24 -3 -2 46 -30
108 -61 l112 -57 93 5 c72 4 109 1 160 -14 67 -18 117 -20 202 -6 87 14 115
13 230 -11 53 -12 107 -10 155 3 78 23 171 24 219 4 22 -9 52 -16 66 -15 28 3
75 12 75 14 0 1 7 3 15 5 8 2 33 7 55 12 22 5 56 8 75 6 91 -9 199 -3 240 12
25 9 50 17 55 19 21 6 71 27 105 44 57 28 144 123 155 169 3 10 8 34 13 53 9
36 8 104 -1 151 -16 78 -99 179 -180 217 -94 44 -240 59 -330 34 -33 -9 -61
-9 -161 2 -21 2 -67 -4 -101 -13 -69 -19 -122 -19 -205 1 -59 15 -105 15 -160
3 -19 -5 -47 -9 -62 -9 -16 -1 -28 -3 -28 -6 0 -7 -51 -4 -70 4 -32 12 -136
33 -155 30 -11 -1 -40 -6 -65 -9 -85 -13 -115 -14 -150 -5 -110 29 -170 31
-248 10z m203 -64 c245 -18 751 -27 868 -16 36 4 57 2 57 -5 0 -7 3 -7 8 0 4
6 48 12 97 13 50 1 117 4 150 7 184 17 345 4 345 -27 0 -4 7 -8 15 -8 8 0 15
-4 15 -10 0 -5 7 -10 15 -10 8 0 15 -3 15 -8 0 -4 14 -23 32 -42 17 -19 31
-37 31 -40 0 -3 4 -16 11 -30 6 -14 11 -61 11 -105 -1 -69 -4 -87 -27 -125
-28 -49 -102 -123 -112 -113 -3 4 -6 1 -6 -6 0 -7 -4 -9 -10 -6 -5 3 -10 1
-10 -6 0 -7 -7 -4 -16 7 -8 10 -13 13 -9 6 10 -20 -5 -35 -21 -21 -12 10 -15
10 -12 -1 2 -10 -9 -14 -42 -15 -25 0 -48 -4 -52 -10 -5 -6 -11 -5 -17 4 -5 8
-11 9 -15 3 -3 -5 -26 -10 -51 -10 -25 -1 -50 -4 -55 -7 -5 -3 -12 -1 -15 5
-4 7 -11 8 -18 2 -7 -6 -32 -10 -57 -11 -25 0 -55 -3 -67 -5 -14 -3 -23 0 -23
7 0 8 -3 8 -9 -2 -6 -9 -11 -10 -15 -2 -5 7 -14 8 -24 2 -9 -4 -51 -9 -92 -11
-41 -1 -106 -3 -144 -4 -59 -2 -66 -1 -50 11 10 7 13 13 7 13 -7 0 -18 -6 -25
-12 -17 -17 -48 -22 -48 -8 0 5 5 10 12 10 6 0 8 3 5 6 -4 4 -14 1 -23 -7 -9
-7 -33 -15 -53 -16 -33 -2 -35 -1 -17 13 11 8 15 14 9 14 -6 0 -15 -6 -21 -13
-14 -17 -116 -14 -137 3 -13 11 -14 10 -10 -1 6 -16 -31 -19 -53 -5 -7 4 -12
4 -12 -1 0 -4 -20 -7 -45 -5 -31 3 -43 8 -38 16 4 6 -1 5 -10 -3 -14 -11 -17
-11 -18 0 0 10 -2 11 -6 2 -2 -7 -11 -13 -19 -13 -9 0 -12 5 -8 13 6 10 4 10
-7 0 -18 -18 -29 -16 -30 5 0 14 -2 14 -9 -3 -5 -11 -9 -14 -9 -7 -1 9 -6 10
-17 4 -9 -5 -35 -6 -57 -1 -23 4 -46 5 -51 1 -5 -3 -6 3 -3 14 6 17 5 17 -5 3
-14 -16 -75 -16 -92 1 -6 6 -15 5 -24 -2 -10 -9 -15 -9 -22 1 -5 9 -10 10 -14
2 -5 -7 -13 -8 -25 -1 -10 5 -21 6 -25 2 -4 -3 -11 0 -16 8 -6 8 -10 10 -10 4
0 -6 -13 -9 -30 -6 -16 2 -30 9 -30 15 0 6 -3 8 -6 4 -9 -8 -70 26 -110 62
-134 123 -103 361 60 449 74 40 118 43 341 28z"/>
<path d="M631 1439 c-12 -5 -33 -11 -45 -13 -31 -6 -129 -51 -147 -68 -70 -63
-65 -61 -94 -42 -23 15 -28 15 -41 2 -18 -18 -10 -41 20 -57 16 -9 22 -22 23
-47 1 -36 38 -88 54 -78 5 3 9 1 9 -4 0 -15 106 -17 146 -2 13 5 24 7 24 4 0
-4 7 -1 15 6 11 10 17 9 29 -3 8 -8 12 -17 9 -21 -10 -9 6 -7 27 4 15 8 29 37
29 63 0 4 7 14 15 23 8 8 13 21 10 29 -8 19 -38 19 -57 0 -13 -12 -116 -59
-124 -56 -2 1 -4 1 -5 0 -2 -1 -23 -2 -48 -4 -51 -2 -80 11 -80 38 0 15 8 17
60 14 36 -2 61 1 64 7 3 6 5 5 5 -2 1 -8 6 -10 14 -5 6 4 21 9 32 10 11 2 31
5 45 7 77 11 170 83 170 132 0 28 -32 63 -57 65 -10 1 -32 2 -48 4 -17 1 -41
-2 -54 -6z m106 -56 c12 -30 -53 -69 -152 -89 -41 -9 -145 -12 -145 -4 0 15
84 65 149 87 80 27 139 30 148 6z"/>
<path d="M1218 1436 c-28 -15 -84 -66 -72 -66 3 0 0 -7 -7 -16 -13 -16 -16
-24 -26 -77 -6 -30 11 -59 32 -51 7 3 16 23 19 45 10 65 70 140 97 123 13 -8
6 -79 -10 -98 -6 -7 -33 -36 -59 -63 -66 -69 -82 -93 -82 -125 0 -37 33 -52
73 -32 15 8 27 19 27 24 0 5 6 15 13 22 7 7 25 38 40 69 16 33 43 69 68 90 23
19 48 39 54 46 19 18 24 5 14 -30 -6 -18 -12 -40 -14 -49 -2 -10 -20 -39 -40
-65 l-36 -48 21 -17 c26 -21 41 -16 65 25 17 29 85 103 85 92 0 -2 12 7 27 21
27 25 42 26 27 2 -5 -7 -9 -18 -10 -25 -1 -7 -11 -25 -21 -40 -28 -40 -32 -57
-19 -79 14 -24 32 -28 67 -13 19 7 37 8 56 2 35 -12 72 2 107 40 23 25 26 26
26 8 0 -26 36 -51 64 -44 11 3 44 5 72 4 82 -3 109 31 89 112 -6 21 -4 27 6
25 8 -2 14 5 14 14 0 9 4 20 8 24 4 4 7 2 7 -4 0 -6 6 -9 14 -6 8 3 17 0 22
-7 4 -7 2 -15 -4 -17 -7 -2 -12 -12 -12 -23 0 -10 -4 -19 -9 -19 -16 0 -18
-33 -5 -61 17 -34 44 -41 85 -21 30 14 77 57 80 72 0 3 2 13 4 22 5 25 -14 18
-49 -18 -63 -64 -90 -44 -48 36 28 53 36 59 71 55 35 -5 60 3 57 18 -4 27 -19
39 -47 35 -26 -4 -27 -2 -22 23 5 25 3 27 -18 22 -25 -7 -50 -33 -43 -44 8
-13 -29 -33 -57 -31 -19 2 -32 -3 -35 -13 -4 -8 -14 -15 -24 -15 -20 0 -52
-27 -69 -58 -7 -12 -17 -22 -24 -21 -28 3 -36 -3 -42 -31 -6 -29 -15 -37 -28
-23 -7 6 16 47 40 71 31 32 5 54 -37 32 -14 -8 -25 -7 -40 2 -24 15 -40 2 -45
-37 -3 -32 -56 -87 -74 -76 -8 5 -5 18 11 47 25 47 20 81 -11 65 -10 -6 -26
-25 -34 -44 -19 -38 -65 -92 -74 -84 -3 4 7 28 23 54 41 69 41 90 2 84 -5 0
-8 3 -8 9 0 12 115 71 123 64 10 -11 26 32 17 47 -8 12 -17 11 -62 -5 -29 -10
-79 -36 -112 -57 -32 -21 -62 -39 -66 -39 -11 0 -7 33 5 43 7 5 7 10 0 15 -5
4 -10 14 -10 22 0 21 -68 18 -90 -4 -25 -24 -42 -20 -42 11 0 17 -11 36 -27
50 -32 27 -33 27 -68 9z m700 -273 c-16 -19 -29 -5 -16 17 9 13 14 16 20 7 4
-6 2 -17 -4 -24z"/>
<path d="M1833 1442 c-19 -13 -22 -40 -5 -44 26 -7 42 2 42 22 0 20 -21 32
-37 22z"/>
<path d="M1751 1431 c-29 -8 -50 -36 -36 -50 14 -12 72 -2 79 14 8 22 -17 43
-43 36z"/>
<path d="M242 1360 c-10 -16 -8 -21 9 -31 17 -9 23 -8 30 2 11 17 11 21 1 34
-12 17 -27 15 -40 -5z"/>
<path d="M983 1343 c-11 -10 -23 -26 -26 -37 -5 -13 -14 -17 -31 -14 -14 3
-31 1 -38 -4 -10 -6 -8 -13 10 -28 23 -19 23 -20 7 -48 -32 -54 -121 -93 -140
-62 -4 6 7 10 25 10 19 0 40 9 55 25 28 28 30 35 13 58 -28 37 -94 28 -124
-18 -27 -42 -27 -83 1 -110 24 -25 30 -26 118 -9 25 4 37 3 37 -5 0 -13 49
-15 83 -2 31 12 84 65 84 85 0 24 -15 20 -54 -14 -34 -30 -73 -40 -73 -18 0 6
14 34 32 61 31 48 33 49 71 44 28 -4 44 -1 55 10 14 14 14 17 -1 28 -9 6 -15
14 -12 17 3 2 -10 3 -28 0 -25 -3 -30 -2 -20 8 13 15 6 40 -12 40 -6 0 -21 -8
-32 -17z m-165 -125 c-3 -7 -15 -15 -28 -16 -21 -3 -22 -2 -11 12 16 19 44 21
39 4z"/>
<path d="M397 1019 c7 -7 15 -10 18 -7 3 3 -2 9 -12 12 -14 6 -15 5 -6 -5z"/>
<path d="M455 1019 c-4 -6 -5 -12 -2 -15 2 -3 7 2 10 11 7 17 1 20 -8 4z"/>
<path d="M1825 1000 c-3 -6 1 -7 9 -4 18 7 21 14 7 14 -6 0 -13 -4 -16 -10z"/>
<path d="M1875 999 c-4 -6 -5 -12 -2 -15 2 -3 7 2 10 11 7 17 1 20 -8 4z"/>
<path d="M1950 1000 c0 -5 7 -7 15 -4 8 4 15 8 15 10 0 2 -7 4 -15 4 -8 0 -15
-4 -15 -10z"/>
<path d="M1264 978 l-19 -23 23 19 c21 18 27 26 19 26 -2 0 -12 -10 -23 -22z"/>
<path d="M1557 987 c-3 -8 1 -14 8 -14 7 0 11 6 8 14 -3 7 -6 13 -8 13 -2 0
-5 -6 -8 -13z"/>
<path d="M1016 973 c-6 -14 -5 -15 5 -6 7 7 10 15 7 18 -3 3 -9 -2 -12 -12z"/>
<path d="M1176 973 c-6 -14 -5 -15 5 -6 7 7 10 15 7 18 -3 3 -9 -2 -12 -12z"/>
<path d="M1380 986 c0 -2 7 -7 16 -10 8 -3 12 -2 9 4 -6 10 -25 14 -25 6z"/>
<path d="M1710 979 c0 -5 5 -7 10 -4 6 3 10 8 10 11 0 2 -4 4 -10 4 -5 0 -10
-5 -10 -11z"/>
</g>
</svg>
